<?xml version="1.0" encoding="UTF-8"?>
<svg xmlns="http://www.w3.org/2000/svg"
     xmlns:xlink="http://www.w3.org/1999/xlink"
     version="1.2"
     width="488.75mm" height="56.25mm" viewBox="0 0 488.75 56.25"
     stroke="none"
     fill="#000000"
     stroke-width="0.3"
     font-size="3.88"
>
<defs>
  <marker id="arrow" markerWidth="15" markerHeight="7" refX="5" refY="3.5" orient="auto" markerUnits="strokeWidth">
    <path d="M0,0 L15,3.5 L0,7 z" stroke="context-stroke" fill="context-stroke"/>
  </marker>
</defs>
<g stroke-width="0.35" stroke="#000000" id="img-109f9d4c-1">
  <g transform="translate(469.38,43.75)">
    <path fill="none" d="M10.62,0 L-10.63,0 " class="primitive"/>
  </g>
</g>
<g stroke-width="0.35" stroke="#000000" id="img-109f9d4c-2">
  <g transform="translate(480,43.75)">
    <path fill="none" d="M0,-3.75 L0,3.75 " class="primitive"/>
  </g>
</g>
<g stroke-width="0.35" stroke="#000000" id="img-109f9d4c-3">
  <g transform="translate(469.38,25)">
    <path fill="none" d="M10.62,0 L-10.63,0 " class="primitive"/>
  </g>
</g>
<g stroke-width="0.35" stroke="#000000" id="img-109f9d4c-4">
  <g transform="translate(480,25)">
    <path fill="none" d="M0,-3.75 L0,3.75 " class="primitive"/>
  </g>
</g>
<g stroke-width="0.35" stroke="#000000" id="img-109f9d4c-5">
  <g transform="translate(437.5,6.25)">
    <path fill="none" d="M42.5,0 L-42.5,0 " class="primitive"/>
  </g>
</g>
<g stroke-width="0.35" stroke="#000000" id="img-109f9d4c-6">
  <g transform="translate(480,6.25)">
    <path fill="none" d="M0,-3.75 L0,3.75 " class="primitive"/>
  </g>
</g>
<g stroke-width="0.35" stroke="#000000" id="img-109f9d4c-7">
  <g transform="translate(448.12,43.75)">
    <path fill="none" d="M10.62,0 L-10.62,0 " class="primitive"/>
  </g>
</g>
<g stroke-width="0.35" stroke="#000000" id="img-109f9d4c-8">
  <g transform="translate(448.12,25)">
    <path fill="none" d="M10.62,0 L-10.62,0 " class="primitive"/>
  </g>
</g>
<g stroke-width="0.35" stroke="#000000" id="img-109f9d4c-9">
  <g transform="translate(384.38,6.25)">
    <path fill="none" d="M10.62,0 L-10.62,0 " class="primitive"/>
  </g>
</g>
<g stroke-width="0.35" stroke="#000000" id="img-109f9d4c-10">
  <g transform="translate(426.88,43.75)">
    <path fill="none" d="M10.62,0 L-10.63,0 " class="primitive"/>
  </g>
</g>
<g stroke-width="0.35" stroke="#000000" id="img-109f9d4c-11">
  <g transform="translate(416.25,25)">
    <path fill="none" d="M21.25,0 L-21.25,0 " class="primitive"/>
  </g>
</g>
<g stroke-width="0.35" stroke="#000000" id="img-109f9d4c-12">
  <g transform="translate(437.5,34.38)">
    <path fill="none" d="M0,9.38 L0,-9.38 " class="primitive"/>
  </g>
</g>
<g stroke-width="0.35" stroke="#000000" id="img-109f9d4c-13">
  <g transform="translate(405.62,43.75)">
    <path fill="none" d="M10.62,0 L-10.62,0 " class="primitive"/>
  </g>
</g>
<g stroke-width="0.35" stroke="#000000" id="img-109f9d4c-14">
  <g transform="translate(384.38,43.75)">
    <path fill="none" d="M10.62,0 L-10.62,0 " class="primitive"/>
  </g>
</g>
<g stroke-width="0.35" stroke="#000000" id="img-109f9d4c-15">
  <g transform="translate(384.38,25)">
    <path fill="none" d="M10.62,0 L-10.62,0 " class="primitive"/>
  </g>
</g>
<g stroke-width="0.35" stroke="#000000" id="img-109f9d4c-16">
  <g transform="translate(395,34.38)">
    <path fill="none" d="M0,9.38 L0,-9.38 " class="primitive"/>
  </g>
</g>
<g stroke-width="0.35" stroke="#000000" id="img-109f9d4c-17">
  <g transform="translate(363.12,43.75)">
    <path fill="none" d="M10.62,0 L-10.62,0 " class="primitive"/>
  </g>
</g>
<g stroke-width="0.35" stroke="#000000" id="img-109f9d4c-18">
  <g transform="translate(352.5,25)">
    <path fill="none" d="M21.25,0 L-21.25,0 " class="primitive"/>
  </g>
</g>
<g stroke-width="0.35" stroke="#000000" id="img-109f9d4c-19">
  <g transform="translate(352.5,6.25)">
    <path fill="none" d="M21.25,0 L-21.25,0 " class="primitive"/>
  </g>
</g>
<g stroke-width="0.35" stroke="#000000" id="img-109f9d4c-20">
  <g transform="translate(373.75,25)">
    <path fill="none" d="M0,18.75 L0,-18.75 " class="primitive"/>
  </g>
</g>
<g stroke-width="0.35" stroke="#000000" id="img-109f9d4c-21">
  <g transform="translate(341.88,43.75)">
    <path fill="none" d="M10.62,0 L-10.62,0 " class="primitive"/>
  </g>
</g>
<g stroke-width="0.35" stroke="#000000" id="img-109f9d4c-22">
  <g transform="translate(288.75,43.75)">
    <path fill="none" d="M42.5,0 L-42.5,0 " class="primitive"/>
  </g>
</g>
<g stroke-width="0.35" stroke="#000000" id="img-109f9d4c-23">
  <g transform="translate(320.62,25)">
    <path fill="none" d="M10.62,0 L-10.62,0 " class="primitive"/>
  </g>
</g>
<g stroke-width="0.35" stroke="#000000" id="img-109f9d4c-24">
  <g transform="translate(320.62,6.25)">
    <path fill="none" d="M10.62,0 L-10.62,0 " class="primitive"/>
  </g>
</g>
<g stroke-width="0.35" stroke="#000000" id="img-109f9d4c-25">
  <g transform="translate(331.25,25)">
    <path fill="none" d="M0,18.75 L0,-18.75 " class="primitive"/>
  </g>
</g>
<g stroke-width="0.35" stroke="#000000" id="img-109f9d4c-26">
  <g transform="translate(299.38,25)">
    <path fill="none" d="M10.62,0 L-10.62,0 " class="primitive"/>
  </g>
</g>
<g stroke-width="0.35" stroke="#000000" id="img-109f9d4c-27">
  <g transform="translate(288.75,6.25)">
    <path fill="none" d="M21.25,0 L-21.25,0 " class="primitive"/>
  </g>
</g>
<g stroke-width="0.35" stroke="#000000" id="img-109f9d4c-28">
  <g transform="translate(310,15.62)">
    <path fill="none" d="M0,9.38 L0,-9.38 " class="primitive"/>
  </g>
</g>
<g stroke-width="0.35" stroke="#000000" id="img-109f9d4c-29">
  <g transform="translate(278.12,25)">
    <path fill="none" d="M10.62,0 L-10.62,0 " class="primitive"/>
  </g>
</g>
<g stroke-width="0.35" stroke="#000000" id="img-109f9d4c-30">
  <g transform="translate(256.88,25)">
    <path fill="none" d="M10.62,0 L-10.62,0 " class="primitive"/>
  </g>
</g>
<g stroke-width="0.35" stroke="#000000" id="img-109f9d4c-31">
  <g transform="translate(225,6.25)">
    <path fill="none" d="M42.5,0 L-42.5,0 " class="primitive"/>
  </g>
</g>
<g stroke-width="0.35" stroke="#000000" id="img-109f9d4c-32">
  <g transform="translate(267.5,15.62)">
    <path fill="none" d="M0,9.38 L0,-9.38 " class="primitive"/>
  </g>
</g>
<g stroke-width="0.35" stroke="#000000" id="img-109f9d4c-33">
  <g transform="translate(235.62,43.75)">
    <path fill="none" d="M10.62,0 L-10.62,0 " class="primitive"/>
  </g>
</g>
<g stroke-width="0.35" stroke="#000000" id="img-109f9d4c-34">
  <g transform="translate(235.62,25)">
    <path fill="none" d="M10.62,0 L-10.62,0 " class="primitive"/>
  </g>
</g>
<g stroke-width="0.35" stroke="#000000" id="img-109f9d4c-35">
  <g transform="translate(171.88,6.25)">
    <path fill="none" d="M10.62,0 L-10.62,0 " class="primitive"/>
  </g>
</g>
<g stroke-width="0.35" stroke="#000000" id="img-109f9d4c-36">
  <g transform="translate(214.38,43.75)">
    <path fill="none" d="M10.62,0 L-10.62,0 " class="primitive"/>
  </g>
</g>
<g stroke-width="0.35" stroke="#000000" id="img-109f9d4c-37">
  <g transform="translate(203.75,25)">
    <path fill="none" d="M21.25,0 L-21.25,0 " class="primitive"/>
  </g>
</g>
<g stroke-width="0.35" stroke="#000000" id="img-109f9d4c-38">
  <g transform="translate(225,34.38)">
    <path fill="none" d="M0,9.38 L0,-9.38 " class="primitive"/>
  </g>
</g>
<g stroke-width="0.35" stroke="#000000" id="img-109f9d4c-39">
  <g transform="translate(193.12,43.75)">
    <path fill="none" d="M10.62,0 L-10.62,0 " class="primitive"/>
  </g>
</g>
<g stroke-width="0.35" stroke="#000000" id="img-109f9d4c-40">
  <g transform="translate(171.88,43.75)">
    <path fill="none" d="M10.62,0 L-10.62,0 " class="primitive"/>
  </g>
</g>
<g stroke-width="0.35" stroke="#000000" id="img-109f9d4c-41">
  <g transform="translate(171.88,25)">
    <path fill="none" d="M10.62,0 L-10.62,0 " class="primitive"/>
  </g>
</g>
<g stroke-width="0.35" stroke="#000000" id="img-109f9d4c-42">
  <g transform="translate(182.5,34.38)">
    <path fill="none" d="M0,9.38 L0,-9.38 " class="primitive"/>
  </g>
</g>
<g stroke-width="0.35" stroke="#000000" id="img-109f9d4c-43">
  <g transform="translate(150.62,43.75)">
    <path fill="none" d="M10.62,0 L-10.62,0 " class="primitive"/>
  </g>
</g>
<g stroke-width="0.35" stroke="#000000" id="img-109f9d4c-44">
  <g transform="translate(140,25)">
    <path fill="none" d="M21.25,0 L-21.25,0 " class="primitive"/>
  </g>
</g>
<g stroke-width="0.35" stroke="#000000" id="img-109f9d4c-45">
  <g transform="translate(140,6.25)">
    <path fill="none" d="M21.25,0 L-21.25,0 " class="primitive"/>
  </g>
</g>
<g stroke-width="0.35" stroke="#000000" id="img-109f9d4c-46">
  <g transform="translate(161.25,25)">
    <path fill="none" d="M0,18.75 L0,-18.75 " class="primitive"/>
  </g>
</g>
<g stroke-width="0.35" stroke="#000000" id="img-109f9d4c-47">
  <g transform="translate(129.38,43.75)">
    <path fill="none" d="M10.62,0 L-10.62,0 " class="primitive"/>
  </g>
</g>
<g stroke-width="0.35" stroke="#000000" id="img-109f9d4c-48">
  <g transform="translate(76.25,43.75)">
    <path fill="none" d="M42.5,0 L-42.5,0 " class="primitive"/>
  </g>
</g>
<g stroke-width="0.35" stroke="#000000" id="img-109f9d4c-49">
  <g transform="translate(108.12,25)">
    <path fill="none" d="M10.62,0 L-10.62,0 " class="primitive"/>
  </g>
</g>
<g stroke-width="0.35" stroke="#000000" id="img-109f9d4c-50">
  <g transform="translate(108.12,6.25)">
    <path fill="none" d="M10.62,0 L-10.62,0 " class="primitive"/>
  </g>
</g>
<g stroke-width="0.35" stroke="#000000" id="img-109f9d4c-51">
  <g transform="translate(118.75,25)">
    <path fill="none" d="M0,18.75 L0,-18.75 " class="primitive"/>
  </g>
</g>
<g stroke-width="0.35" stroke="#000000" id="img-109f9d4c-52">
  <g transform="translate(86.88,25)">
    <path fill="none" d="M10.62,0 L-10.62,0 " class="primitive"/>
  </g>
</g>
<g stroke-width="0.35" stroke="#000000" id="img-109f9d4c-53">
  <g transform="translate(76.25,6.25)">
    <path fill="none" d="M21.25,0 L-21.25,0 " class="primitive"/>
  </g>
</g>
<g stroke-width="0.35" stroke="#000000" id="img-109f9d4c-54">
  <g transform="translate(97.5,15.62)">
    <path fill="none" d="M0,9.38 L0,-9.38 " class="primitive"/>
  </g>
</g>
<g stroke-width="0.35" stroke="#000000" id="img-109f9d4c-55">
  <g transform="translate(65.62,25)">
    <path fill="none" d="M10.62,0 L-10.62,0 " class="primitive"/>
  </g>
</g>
<g stroke-width="0.35" stroke="#000000" id="img-109f9d4c-56">
  <g transform="translate(44.38,25)">
    <path fill="none" d="M10.62,0 L-10.62,0 " class="primitive"/>
  </g>
</g>
<g stroke-width="0.35" stroke="#000000" id="img-109f9d4c-57">
  <g transform="translate(44.38,6.25)">
    <path fill="none" d="M10.62,0 L-10.62,0 " class="primitive"/>
  </g>
</g>
<g stroke-width="0.35" stroke="#000000" id="img-109f9d4c-58">
  <g transform="translate(55,15.62)">
    <path fill="none" d="M0,9.38 L0,-9.38 " class="primitive"/>
  </g>
</g>
<g stroke-width="0.35" stroke="#000000" id="img-109f9d4c-59">
  <g transform="translate(23.12,43.75)">
    <path fill="none" d="M10.62,0 L-10.62,0 " class="primitive"/>
  </g>
</g>
<g stroke-width="0.35" stroke="#000000" id="img-109f9d4c-60">
  <g transform="translate(23.12,25)">
    <path fill="none" d="M10.62,0 L-10.62,0 " class="primitive"/>
  </g>
</g>
<g stroke-width="0.35" stroke="#000000" id="img-109f9d4c-61">
  <g transform="translate(23.12,6.25)">
    <path fill="none" d="M10.62,0 L-10.62,0 " class="primitive"/>
  </g>
</g>
<g stroke-width="0.35" stroke="#000000" fill="#FFFFFF" id="img-109f9d4c-62">
  <g transform="translate(458.75,43.75)">
    <path d="M-7.5,-5 L7.5,-5 7.5,5 -7.5,5  z" class="primitive"/>
  </g>
</g>
<g stroke-width="0.35" stroke="#000000" fill="#FFFFFF" id="img-109f9d4c-63">
  <g transform="translate(458.75,25)">
    <path d="M-7.5,-5 L7.5,-5 7.5,5 -7.5,5  z" class="primitive"/>
  </g>
</g>
<g stroke-width="0.35" stroke="#000000" fill="#FFFFFF" id="img-109f9d4c-64">
  <g transform="translate(395,6.25)">
    <path d="M-7.5,-5 L7.5,-5 7.5,5 -7.5,5  z" class="primitive"/>
  </g>
</g>
<g stroke-width="0.35" stroke="#000000" id="img-109f9d4c-65">
  <g transform="translate(437.5,43.75)">
    <path d="M0,-5 L0,5  z" class="primitive"/>
  </g>
</g>
<g stroke-width="0.35" stroke="#000000" id="img-109f9d4c-66">
  <g transform="translate(437.5,43.75)">
    <path d="M-5,0 L5,0  z" class="primitive"/>
  </g>
</g>
<g fill="#000000" fill-opacity="0.000" stroke-width="0.35" stroke="#000000" id="img-109f9d4c-67">
  <g transform="translate(437.5,43.75)">
    <circle cx="0" cy="0" r="5" class="primitive"/>
  </g>
</g>
<g stroke-width="0" fill="#000000" id="img-109f9d4c-68">
  <g transform="translate(437.5,25)">
    <circle cx="0" cy="0" r="1.67" class="primitive"/>
  </g>
</g>
<g stroke-width="0.35" stroke="#000000" fill="#FFFFFF" id="img-109f9d4c-69">
  <g transform="translate(416.25,43.75)">
    <path d="M-7.5,-5 L7.5,-5 7.5,5 -7.5,5  z" class="primitive"/>
  </g>
</g>
<g stroke-width="0.35" stroke="#000000" id="img-109f9d4c-70">
  <g transform="translate(395,43.75)">
    <path d="M0,-5 L0,5  z" class="primitive"/>
  </g>
</g>
<g stroke-width="0.35" stroke="#000000" id="img-109f9d4c-71">
  <g transform="translate(395,43.75)">
    <path d="M-5,0 L5,0  z" class="primitive"/>
  </g>
</g>
<g fill="#000000" fill-opacity="0.000" stroke-width="0.35" stroke="#000000" id="img-109f9d4c-72">
  <g transform="translate(395,43.75)">
    <circle cx="0" cy="0" r="5" class="primitive"/>
  </g>
</g>
<g stroke-width="0" fill="#000000" id="img-109f9d4c-73">
  <g transform="translate(395,25)">
    <circle cx="0" cy="0" r="1.67" class="primitive"/>
  </g>
</g>
<g stroke-width="0.35" stroke="#000000" id="img-109f9d4c-74">
  <g transform="translate(373.75,43.75)">
    <path d="M0,-5 L0,5  z" class="primitive"/>
  </g>
</g>
<g stroke-width="0.35" stroke="#000000" id="img-109f9d4c-75">
  <g transform="translate(373.75,43.75)">
    <path d="M-5,0 L5,0  z" class="primitive"/>
  </g>
</g>
<g fill="#000000" fill-opacity="0.000" stroke-width="0.35" stroke="#000000" id="img-109f9d4c-76">
  <g transform="translate(373.75,43.75)">
    <circle cx="0" cy="0" r="5" class="primitive"/>
  </g>
</g>
<g stroke-width="0" fill="#000000" id="img-109f9d4c-77">
  <g transform="translate(373.75,6.25)">
    <circle cx="0" cy="0" r="1.67" class="primitive"/>
  </g>
</g>
<g stroke-width="0.35" stroke="#000000" fill="#FFFFFF" id="img-109f9d4c-78">
  <g transform="translate(352.5,43.75)">
    <path d="M-7.5,-5 L7.5,-5 7.5,5 -7.5,5  z" class="primitive"/>
  </g>
</g>
<g stroke-width="0.35" stroke="#000000" id="img-109f9d4c-79">
  <g transform="translate(331.25,43.75)">
    <path d="M0,-5 L0,5  z" class="primitive"/>
  </g>
</g>
<g stroke-width="0.35" stroke="#000000" id="img-109f9d4c-80">
  <g transform="translate(331.25,43.75)">
    <path d="M-5,0 L5,0  z" class="primitive"/>
  </g>
</g>
<g fill="#000000" fill-opacity="0.000" stroke-width="0.35" stroke="#000000" id="img-109f9d4c-81">
  <g transform="translate(331.25,43.75)">
    <circle cx="0" cy="0" r="5" class="primitive"/>
  </g>
</g>
<g stroke-width="0" fill="#000000" id="img-109f9d4c-82">
  <g transform="translate(331.25,6.25)">
    <circle cx="0" cy="0" r="1.67" class="primitive"/>
  </g>
</g>
<g stroke-width="0.35" stroke="#000000" id="img-109f9d4c-83">
  <g transform="translate(310,25)">
    <path d="M0,-5 L0,5  z" class="primitive"/>
  </g>
</g>
<g stroke-width="0.35" stroke="#000000" id="img-109f9d4c-84">
  <g transform="translate(310,25)">
    <path d="M-5,0 L5,0  z" class="primitive"/>
  </g>
</g>
<g fill="#000000" fill-opacity="0.000" stroke-width="0.35" stroke="#000000" id="img-109f9d4c-85">
  <g transform="translate(310,25)">
    <circle cx="0" cy="0" r="5" class="primitive"/>
  </g>
</g>
<g stroke-width="0" fill="#000000" id="img-109f9d4c-86">
  <g transform="translate(310,6.25)">
    <circle cx="0" cy="0" r="1.67" class="primitive"/>
  </g>
</g>
<g stroke-width="0.35" stroke="#000000" fill="#FFFFFF" id="img-109f9d4c-87">
  <g transform="translate(288.75,25)">
    <path d="M-7.5,-5 L7.5,-5 7.5,5 -7.5,5  z" class="primitive"/>
  </g>
</g>
<g stroke-width="0.35" stroke="#000000" id="img-109f9d4c-88">
  <g transform="translate(267.5,25)">
    <path d="M0,-5 L0,5  z" class="primitive"/>
  </g>
</g>
<g stroke-width="0.35" stroke="#000000" id="img-109f9d4c-89">
  <g transform="translate(267.5,25)">
    <path d="M-5,0 L5,0  z" class="primitive"/>
  </g>
</g>
<g fill="#000000" fill-opacity="0.000" stroke-width="0.35" stroke="#000000" id="img-109f9d4c-90">
  <g transform="translate(267.5,25)">
    <circle cx="0" cy="0" r="5" class="primitive"/>
  </g>
</g>
<g stroke-width="0" fill="#000000" id="img-109f9d4c-91">
  <g transform="translate(267.5,6.25)">
    <circle cx="0" cy="0" r="1.67" class="primitive"/>
  </g>
</g>
<g stroke-width="0.35" stroke="#000000" fill="#FFFFFF" id="img-109f9d4c-92">
  <g transform="translate(246.25,43.75)">
    <path d="M-7.5,-5 L7.5,-5 7.5,5 -7.5,5  z" class="primitive"/>
  </g>
</g>
<g stroke-width="0.35" stroke="#000000" fill="#FFFFFF" id="img-109f9d4c-93">
  <g transform="translate(246.25,25)">
    <path d="M-7.5,-5 L7.5,-5 7.5,5 -7.5,5  z" class="primitive"/>
  </g>
</g>
<g stroke-width="0.35" stroke="#000000" fill="#FFFFFF" id="img-109f9d4c-94">
  <g transform="translate(182.5,6.25)">
    <path d="M-7.5,-5 L7.5,-5 7.5,5 -7.5,5  z" class="primitive"/>
  </g>
</g>
<g stroke-width="0.35" stroke="#000000" id="img-109f9d4c-95">
  <g transform="translate(225,43.75)">
    <path d="M0,-5 L0,5  z" class="primitive"/>
  </g>
</g>
<g stroke-width="0.35" stroke="#000000" id="img-109f9d4c-96">
  <g transform="translate(225,43.75)">
    <path d="M-5,0 L5,0  z" class="primitive"/>
  </g>
</g>
<g fill="#000000" fill-opacity="0.000" stroke-width="0.35" stroke="#000000" id="img-109f9d4c-97">
  <g transform="translate(225,43.75)">
    <circle cx="0" cy="0" r="5" class="primitive"/>
  </g>
</g>
<g stroke-width="0" fill="#000000" id="img-109f9d4c-98">
  <g transform="translate(225,25)">
    <circle cx="0" cy="0" r="1.67" class="primitive"/>
  </g>
</g>
<g stroke-width="0.35" stroke="#000000" fill="#FFFFFF" id="img-109f9d4c-99">
  <g transform="translate(203.75,43.75)">
    <path d="M-7.5,-5 L7.5,-5 7.5,5 -7.5,5  z" class="primitive"/>
  </g>
</g>
<g stroke-width="0.35" stroke="#000000" id="img-109f9d4c-100">
  <g transform="translate(182.5,43.75)">
    <path d="M0,-5 L0,5  z" class="primitive"/>
  </g>
</g>
<g stroke-width="0.35" stroke="#000000" id="img-109f9d4c-101">
  <g transform="translate(182.5,43.75)">
    <path d="M-5,0 L5,0  z" class="primitive"/>
  </g>
</g>
<g fill="#000000" fill-opacity="0.000" stroke-width="0.35" stroke="#000000" id="img-109f9d4c-102">
  <g transform="translate(182.5,43.75)">
    <circle cx="0" cy="0" r="5" class="primitive"/>
  </g>
</g>
<g stroke-width="0" fill="#000000" id="img-109f9d4c-103">
  <g transform="translate(182.5,25)">
    <circle cx="0" cy="0" r="1.67" class="primitive"/>
  </g>
</g>
<g stroke-width="0.35" stroke="#000000" id="img-109f9d4c-104">
  <g transform="translate(161.25,43.75)">
    <path d="M0,-5 L0,5  z" class="primitive"/>
  </g>
</g>
<g stroke-width="0.35" stroke="#000000" id="img-109f9d4c-105">
  <g transform="translate(161.25,43.75)">
    <path d="M-5,0 L5,0  z" class="primitive"/>
  </g>
</g>
<g fill="#000000" fill-opacity="0.000" stroke-width="0.35" stroke="#000000" id="img-109f9d4c-106">
  <g transform="translate(161.25,43.75)">
    <circle cx="0" cy="0" r="5" class="primitive"/>
  </g>
</g>
<g stroke-width="0" fill="#000000" id="img-109f9d4c-107">
  <g transform="translate(161.25,6.25)">
    <circle cx="0" cy="0" r="1.67" class="primitive"/>
  </g>
</g>
<g stroke-width="0.35" stroke="#000000" fill="#FFFFFF" id="img-109f9d4c-108">
  <g transform="translate(140,43.75)">
    <path d="M-7.5,-5 L7.5,-5 7.5,5 -7.5,5  z" class="primitive"/>
  </g>
</g>
<g stroke-width="0.35" stroke="#000000" id="img-109f9d4c-109">
  <g transform="translate(118.75,43.75)">
    <path d="M0,-5 L0,5  z" class="primitive"/>
  </g>
</g>
<g stroke-width="0.35" stroke="#000000" id="img-109f9d4c-110">
  <g transform="translate(118.75,43.75)">
    <path d="M-5,0 L5,0  z" class="primitive"/>
  </g>
</g>
<g fill="#000000" fill-opacity="0.000" stroke-width="0.35" stroke="#000000" id="img-109f9d4c-111">
  <g transform="translate(118.75,43.75)">
    <circle cx="0" cy="0" r="5" class="primitive"/>
  </g>
</g>
<g stroke-width="0" fill="#000000" id="img-109f9d4c-112">
  <g transform="translate(118.75,6.25)">
    <circle cx="0" cy="0" r="1.67" class="primitive"/>
  </g>
</g>
<g stroke-width="0.35" stroke="#000000" id="img-109f9d4c-113">
  <g transform="translate(97.5,25)">
    <path d="M0,-5 L0,5  z" class="primitive"/>
  </g>
</g>
<g stroke-width="0.35" stroke="#000000" id="img-109f9d4c-114">
  <g transform="translate(97.5,25)">
    <path d="M-5,0 L5,0  z" class="primitive"/>
  </g>
</g>
<g fill="#000000" fill-opacity="0.000" stroke-width="0.35" stroke="#000000" id="img-109f9d4c-115">
  <g transform="translate(97.5,25)">
    <circle cx="0" cy="0" r="5" class="primitive"/>
  </g>
</g>
<g stroke-width="0" fill="#000000" id="img-109f9d4c-116">
  <g transform="translate(97.5,6.25)">
    <circle cx="0" cy="0" r="1.67" class="primitive"/>
  </g>
</g>
<g stroke-width="0.35" stroke="#000000" fill="#FFFFFF" id="img-109f9d4c-117">
  <g transform="translate(76.25,25)">
    <path d="M-7.5,-5 L7.5,-5 7.5,5 -7.5,5  z" class="primitive"/>
  </g>
</g>
<g stroke-width="0.35" stroke="#000000" id="img-109f9d4c-118">
  <g transform="translate(55,25)">
    <path d="M0,-5 L0,5  z" class="primitive"/>
  </g>
</g>
<g stroke-width="0.35" stroke="#000000" id="img-109f9d4c-119">
  <g transform="translate(55,25)">
    <path d="M-5,0 L5,0  z" class="primitive"/>
  </g>
</g>
<g fill="#000000" fill-opacity="0.000" stroke-width="0.35" stroke="#000000" id="img-109f9d4c-120">
  <g transform="translate(55,25)">
    <circle cx="0" cy="0" r="5" class="primitive"/>
  </g>
</g>
<g stroke-width="0" fill="#000000" id="img-109f9d4c-121">
  <g transform="translate(55,6.25)">
    <circle cx="0" cy="0" r="1.67" class="primitive"/>
  </g>
</g>
<g stroke-width="0.35" stroke="#000000" fill="#FFFFFF" id="img-109f9d4c-122">
  <g transform="translate(33.75,43.75)">
    <path d="M-5,-5 L5,-5 5,5 -5,5  z" class="primitive"/>
  </g>
</g>
<g stroke-width="0.35" stroke="#000000" fill="#FFFFFF" id="img-109f9d4c-123">
  <g transform="translate(33.75,25)">
    <path d="M-5,-5 L5,-5 5,5 -5,5  z" class="primitive"/>
  </g>
</g>
<g stroke-width="0.35" stroke="#000000" fill="#FFFFFF" id="img-109f9d4c-124">
  <g transform="translate(33.75,6.25)">
    <path d="M-5,-5 L5,-5 5,5 -5,5  z" class="primitive"/>
  </g>
</g>
<g font-family="Helvetica Neue" font-size="3.53" id="img-109f9d4c-125">
  <g transform="translate(458.75,43.75)">
    <g class="primitive">
      <text text-anchor="middle" dy="0.35em">Ry(0)</text>
    </g>
  </g>
</g>
<g font-family="Helvetica Neue" font-size="3.53" id="img-109f9d4c-126">
  <g transform="translate(458.75,25)">
    <g class="primitive">
      <text text-anchor="middle" dy="0.35em">Ry(0)</text>
    </g>
  </g>
</g>
<g font-family="Helvetica Neue" font-size="3.53" id="img-109f9d4c-127">
  <g transform="translate(395,6.25)">
    <g class="primitive">
      <text text-anchor="middle" dy="0.35em">Ry(0)</text>
    </g>
  </g>
</g>
<g font-family="Helvetica Neue" font-size="3.53" id="img-109f9d4c-128">
  <g transform="translate(416.25,43.75)">
    <g class="primitive">
      <text text-anchor="middle" dy="0.35em">Rz(0)</text>
    </g>
  </g>
</g>
<g font-family="Helvetica Neue" font-size="3.53" id="img-109f9d4c-129">
  <g transform="translate(352.5,43.75)">
    <g class="primitive">
      <text text-anchor="middle" dy="0.35em">Rz(0)</text>
    </g>
  </g>
</g>
<g font-family="Helvetica Neue" font-size="3.53" id="img-109f9d4c-130">
  <g transform="translate(288.75,25)">
    <g class="primitive">
      <text text-anchor="middle" dy="0.35em">Rz(0)</text>
    </g>
  </g>
</g>
<g font-family="Helvetica Neue" font-size="3.53" id="img-109f9d4c-131">
  <g transform="translate(246.25,43.75)">
    <g class="primitive">
      <text text-anchor="middle" dy="0.35em">Rx(0)</text>
    </g>
  </g>
</g>
<g font-family="Helvetica Neue" font-size="3.53" id="img-109f9d4c-132">
  <g transform="translate(246.25,25)">
    <g class="primitive">
      <text text-anchor="middle" dy="0.35em">Rx(0)</text>
    </g>
  </g>
</g>
<g font-family="Helvetica Neue" font-size="3.53" id="img-109f9d4c-133">
  <g transform="translate(182.5,6.25)">
    <g class="primitive">
      <text text-anchor="middle" dy="0.35em">Rx(0)</text>
    </g>
  </g>
</g>
<g font-family="Helvetica Neue" font-size="3.53" id="img-109f9d4c-134">
  <g transform="translate(203.75,43.75)">
    <g class="primitive">
      <text text-anchor="middle" dy="0.35em">Rz(0)</text>
    </g>
  </g>
</g>
<g font-family="Helvetica Neue" font-size="3.53" id="img-109f9d4c-135">
  <g transform="translate(140,43.75)">
    <g class="primitive">
      <text text-anchor="middle" dy="0.35em">Rz(0)</text>
    </g>
  </g>
</g>
<g font-family="Helvetica Neue" font-size="3.53" id="img-109f9d4c-136">
  <g transform="translate(76.25,25)">
    <g class="primitive">
      <text text-anchor="middle" dy="0.35em">Rz(0)</text>
    </g>
  </g>
</g>
<g font-family="Helvetica Neue" font-size="5.64" id="img-109f9d4c-137">
  <g transform="translate(33.75,43.75)">
    <g class="primitive">
      <text text-anchor="middle" dy="0.35em">H</text>
    </g>
  </g>
</g>
<g font-family="Helvetica Neue" font-size="5.64" id="img-109f9d4c-138">
  <g transform="translate(33.75,25)">
    <g class="primitive">
      <text text-anchor="middle" dy="0.35em">H</text>
    </g>
  </g>
</g>
<g font-family="Helvetica Neue" font-size="5.64" id="img-109f9d4c-139">
  <g transform="translate(33.75,6.25)">
    <g class="primitive">
      <text text-anchor="middle" dy="0.35em">H</text>
    </g>
  </g>
</g>
</svg>
