<?xml version="1.0" encoding="UTF-8"?>
<svg xmlns="http://www.w3.org/2000/svg"
     xmlns:xlink="http://www.w3.org/1999/xlink"
     version="1.2"
     width="191.25mm" height="56.25mm" viewBox="0 0 191.25 56.25"
     stroke="none"
     fill="#000000"
     stroke-width="0.3"
     font-size="3.88"
>
<defs>
  <marker id="arrow" markerWidth="15" markerHeight="7" refX="5" refY="3.5" orient="auto" markerUnits="strokeWidth">
    <path d="M0,0 L15,3.5 L0,7 z" stroke="context-stroke" fill="context-stroke"/>
  </marker>
</defs>
<g stroke-width="0.35" stroke="#000000" id="img-9ed2e491-1">
  <g transform="translate(171.88,43.75)">
    <path fill="none" d="M10.62,0 L-10.62,0 " class="primitive"/>
  </g>
</g>
<g stroke-width="0.35" stroke="#000000" id="img-9ed2e491-2">
  <g transform="translate(182.5,43.75)">
    <path fill="none" d="M0,-3.75 L0,3.75 " class="primitive"/>
  </g>
</g>
<g stroke-width="0.35" stroke="#000000" id="img-9ed2e491-3">
  <g transform="translate(171.88,25)">
    <path fill="none" d="M10.62,0 L-10.62,0 " class="primitive"/>
  </g>
</g>
<g stroke-width="0.35" stroke="#000000" id="img-9ed2e491-4">
  <g transform="translate(182.5,25)">
    <path fill="none" d="M0,-3.75 L0,3.75 " class="primitive"/>
  </g>
</g>
<g stroke-width="0.35" stroke="#000000" id="img-9ed2e491-5">
  <g transform="translate(140,6.25)">
    <path fill="none" d="M42.5,0 L-42.5,0 " class="primitive"/>
  </g>
</g>
<g stroke-width="0.35" stroke="#000000" id="img-9ed2e491-6">
  <g transform="translate(182.5,6.25)">
    <path fill="none" d="M0,-3.75 L0,3.75 " class="primitive"/>
  </g>
</g>
<g stroke-width="0.35" stroke="#000000" id="img-9ed2e491-7">
  <g transform="translate(150.62,43.75)">
    <path fill="none" d="M10.62,0 L-10.62,0 " class="primitive"/>
  </g>
</g>
<g stroke-width="0.35" stroke="#000000" id="img-9ed2e491-8">
  <g transform="translate(140,25)">
    <path fill="none" d="M21.25,0 L-21.25,0 " class="primitive"/>
  </g>
</g>
<g stroke-width="0.35" stroke="#000000" id="img-9ed2e491-9">
  <g transform="translate(161.25,34.38)">
    <path fill="none" d="M0,9.38 L0,-9.38 " class="primitive"/>
  </g>
</g>
<g stroke-width="0.35" stroke="#000000" id="img-9ed2e491-10">
  <g transform="translate(129.38,43.75)">
    <path fill="none" d="M10.62,0 L-10.62,0 " class="primitive"/>
  </g>
</g>
<g stroke-width="0.35" stroke="#000000" id="img-9ed2e491-11">
  <g transform="translate(76.25,43.75)">
    <path fill="none" d="M42.5,0 L-42.5,0 " class="primitive"/>
  </g>
</g>
<g stroke-width="0.35" stroke="#000000" id="img-9ed2e491-12">
  <g transform="translate(108.12,25)">
    <path fill="none" d="M10.62,0 L-10.62,0 " class="primitive"/>
  </g>
</g>
<g stroke-width="0.35" stroke="#000000" id="img-9ed2e491-13">
  <g transform="translate(118.75,34.38)">
    <path fill="none" d="M0,9.38 L0,-9.38 " class="primitive"/>
  </g>
</g>
<g stroke-width="0.35" stroke="#000000" id="img-9ed2e491-14">
  <g transform="translate(86.88,25)">
    <path fill="none" d="M10.62,0 L-10.62,0 " class="primitive"/>
  </g>
</g>
<g stroke-width="0.35" stroke="#000000" id="img-9ed2e491-15">
  <g transform="translate(76.25,6.25)">
    <path fill="none" d="M21.25,0 L-21.25,0 " class="primitive"/>
  </g>
</g>
<g stroke-width="0.35" stroke="#000000" id="img-9ed2e491-16">
  <g transform="translate(97.5,15.62)">
    <path fill="none" d="M0,9.38 L0,-9.38 " class="primitive"/>
  </g>
</g>
<g stroke-width="0.35" stroke="#000000" id="img-9ed2e491-17">
  <g transform="translate(65.62,25)">
    <path fill="none" d="M10.62,0 L-10.62,0 " class="primitive"/>
  </g>
</g>
<g stroke-width="0.35" stroke="#000000" id="img-9ed2e491-18">
  <g transform="translate(44.38,25)">
    <path fill="none" d="M10.62,0 L-10.62,0 " class="primitive"/>
  </g>
</g>
<g stroke-width="0.35" stroke="#000000" id="img-9ed2e491-19">
  <g transform="translate(44.38,6.25)">
    <path fill="none" d="M10.62,0 L-10.62,0 " class="primitive"/>
  </g>
</g>
<g stroke-width="0.35" stroke="#000000" id="img-9ed2e491-20">
  <g transform="translate(55,15.62)">
    <path fill="none" d="M0,9.38 L0,-9.38 " class="primitive"/>
  </g>
</g>
<g stroke-width="0.35" stroke="#000000" id="img-9ed2e491-21">
  <g transform="translate(23.12,43.75)">
    <path fill="none" d="M10.62,0 L-10.62,0 " class="primitive"/>
  </g>
</g>
<g stroke-width="0.35" stroke="#000000" id="img-9ed2e491-22">
  <g transform="translate(23.12,25)">
    <path fill="none" d="M10.62,0 L-10.62,0 " class="primitive"/>
  </g>
</g>
<g stroke-width="0.35" stroke="#000000" id="img-9ed2e491-23">
  <g transform="translate(23.12,6.25)">
    <path fill="none" d="M10.62,0 L-10.62,0 " class="primitive"/>
  </g>
</g>
<g stroke-width="0.35" stroke="#000000" id="img-9ed2e491-24">
  <g transform="translate(161.25,43.75)">
    <path d="M0,-5 L0,5  z" class="primitive"/>
  </g>
</g>
<g stroke-width="0.35" stroke="#000000" id="img-9ed2e491-25">
  <g transform="translate(161.25,43.75)">
    <path d="M-5,0 L5,0  z" class="primitive"/>
  </g>
</g>
<g fill="#000000" fill-opacity="0.000" stroke-width="0.35" stroke="#000000" id="img-9ed2e491-26">
  <g transform="translate(161.25,43.75)">
    <circle cx="0" cy="0" r="5" class="primitive"/>
  </g>
</g>
<g stroke-width="0" fill="#000000" id="img-9ed2e491-27">
  <g transform="translate(161.25,25)">
    <circle cx="0" cy="0" r="1.67" class="primitive"/>
  </g>
</g>
<g stroke-width="0.35" stroke="#000000" fill="#FFFFFF" id="img-9ed2e491-28">
  <g transform="translate(140,43.75)">
    <path d="M-7.5,-5 L7.5,-5 7.5,5 -7.5,5  z" class="primitive"/>
  </g>
</g>
<g stroke-width="0.35" stroke="#000000" id="img-9ed2e491-29">
  <g transform="translate(118.75,43.75)">
    <path d="M0,-5 L0,5  z" class="primitive"/>
  </g>
</g>
<g stroke-width="0.35" stroke="#000000" id="img-9ed2e491-30">
  <g transform="translate(118.75,43.75)">
    <path d="M-5,0 L5,0  z" class="primitive"/>
  </g>
</g>
<g fill="#000000" fill-opacity="0.000" stroke-width="0.35" stroke="#000000" id="img-9ed2e491-31">
  <g transform="translate(118.75,43.75)">
    <circle cx="0" cy="0" r="5" class="primitive"/>
  </g>
</g>
<g stroke-width="0" fill="#000000" id="img-9ed2e491-32">
  <g transform="translate(118.75,25)">
    <circle cx="0" cy="0" r="1.67" class="primitive"/>
  </g>
</g>
<g stroke-width="0.35" stroke="#000000" id="img-9ed2e491-33">
  <g transform="translate(97.5,25)">
    <path d="M0,-5 L0,5  z" class="primitive"/>
  </g>
</g>
<g stroke-width="0.35" stroke="#000000" id="img-9ed2e491-34">
  <g transform="translate(97.5,25)">
    <path d="M-5,0 L5,0  z" class="primitive"/>
  </g>
</g>
<g fill="#000000" fill-opacity="0.000" stroke-width="0.35" stroke="#000000" id="img-9ed2e491-35">
  <g transform="translate(97.5,25)">
    <circle cx="0" cy="0" r="5" class="primitive"/>
  </g>
</g>
<g stroke-width="0" fill="#000000" id="img-9ed2e491-36">
  <g transform="translate(97.5,6.25)">
    <circle cx="0" cy="0" r="1.67" class="primitive"/>
  </g>
</g>
<g stroke-width="0.35" stroke="#000000" fill="#FFFFFF" id="img-9ed2e491-37">
  <g transform="translate(76.25,25)">
    <path d="M-7.5,-5 L7.5,-5 7.5,5 -7.5,5  z" class="primitive"/>
  </g>
</g>
<g stroke-width="0.35" stroke="#000000" id="img-9ed2e491-38">
  <g transform="translate(55,25)">
    <path d="M0,-5 L0,5  z" class="primitive"/>
  </g>
</g>
<g stroke-width="0.35" stroke="#000000" id="img-9ed2e491-39">
  <g transform="translate(55,25)">
    <path d="M-5,0 L5,0  z" class="primitive"/>
  </g>
</g>
<g fill="#000000" fill-opacity="0.000" stroke-width="0.35" stroke="#000000" id="img-9ed2e491-40">
  <g transform="translate(55,25)">
    <circle cx="0" cy="0" r="5" class="primitive"/>
  </g>
</g>
<g stroke-width="0" fill="#000000" id="img-9ed2e491-41">
  <g transform="translate(55,6.25)">
    <circle cx="0" cy="0" r="1.67" class="primitive"/>
  </g>
</g>
<g stroke-width="0.35" stroke="#000000" fill="#FFFFFF" id="img-9ed2e491-42">
  <g transform="translate(33.75,43.75)">
    <path d="M-7.5,-5 L7.5,-5 7.5,5 -7.5,5  z" class="primitive"/>
  </g>
</g>
<g stroke-width="0.35" stroke="#000000" fill="#FFFFFF" id="img-9ed2e491-43">
  <g transform="translate(33.75,25)">
    <path d="M-7.5,-5 L7.5,-5 7.5,5 -7.5,5  z" class="primitive"/>
  </g>
</g>
<g stroke-width="0.35" stroke="#000000" fill="#FFFFFF" id="img-9ed2e491-44">
  <g transform="translate(33.75,6.25)">
    <path d="M-7.5,-5 L7.5,-5 7.5,5 -7.5,5  z" class="primitive"/>
  </g>
</g>
<g font-family="Helvetica Neue" font-size="3.53" id="img-9ed2e491-45">
  <g transform="translate(140,43.75)">
    <g class="primitive">
      <text text-anchor="middle" dy="0.35em">Rz(-0.1)</text>
    </g>
  </g>
</g>
<g font-family="Helvetica Neue" font-size="3.53" id="img-9ed2e491-46">
  <g transform="translate(76.25,25)">
    <g class="primitive">
      <text text-anchor="middle" dy="0.35em">Rz(-0.1)</text>
    </g>
  </g>
</g>
<g font-family="Helvetica Neue" font-size="3.53" id="img-9ed2e491-47">
  <g transform="translate(33.75,43.75)">
    <g class="primitive">
      <text text-anchor="middle" dy="0.35em">Rx(-0.1)</text>
    </g>
  </g>
</g>
<g font-family="Helvetica Neue" font-size="3.53" id="img-9ed2e491-48">
  <g transform="translate(33.75,25)">
    <g class="primitive">
      <text text-anchor="middle" dy="0.35em">Rx(-0.1)</text>
    </g>
  </g>
</g>
<g font-family="Helvetica Neue" font-size="3.53" id="img-9ed2e491-49">
  <g transform="translate(33.75,6.25)">
    <g class="primitive">
      <text text-anchor="middle" dy="0.35em">Rx(-0.1)</text>
    </g>
  </g>
</g>
</svg>
